<?xml version="1.0" encoding="utf-8"?>
<svg width="70" height="64" viewBox="0 0 70 64" fill="none" xmlns="http://www.w3.org/2000/svg">
  <g>
    <rect width="70" height="64" />
    <g id="Group" transform="translate(3 4)">
      <path id="Path" d="M0.423341 29.0442C-0.141114 28.0887 -0.141114 26.9114 0.423341 25.9558C0.423341 25.9558 14.8434 1.5442 14.8434 1.5442C15.4078 0.58864 16.451 0 17.5799 0C17.5799 0 46.4201 0 46.4201 0C47.549 0 48.5921 0.58864 49.1566 1.5442C49.1566 1.5442 63.5767 25.9558 63.5767 25.9558C64.1411 26.9114 64.1411 28.0887 63.5767 29.0442C63.5767 29.0442 49.1566 53.4558 49.1566 53.4558C48.5921 54.4114 47.549 55 46.4201 55C46.4201 55 17.5799 55 17.5799 55C16.451 55 15.4078 54.4114 14.8434 53.4558C14.8434 53.4558 0.423341 29.0442 0.423341 29.0442C0.423341 29.0442 0.423341 29.0442 0.423341 29.0442Z" fill="none" stroke-width="2" stroke="#DABCFF" />
      <path id="Path" d="M0.100565 0.0351725C1.97902 0.105621 3.93571 0.140896 5.97064 0.140896C5.97064 0.140896 7.89937 0.140896 7.89937 0.140896C8.71553 0.129172 10.1244 0.123259 12.1258 0.123259C14.1383 0.111535 15.8547 0.0998106 17.2746 0.0879841C18.7057 0.0762596 20.1257 0.0468998 21.5346 0C21.624 0.810305 21.8141 1.65578 22.1048 2.53654C22.3955 3.40557 22.675 4.12187 22.9434 4.68556C23.2117 5.23752 23.5639 5.90693 24 6.69368C23.9105 6.89341 23.7148 7.05194 23.4129 7.16938C23.0105 6.3708 22.5241 5.66031 21.9538 5.0379C21.3836 4.41549 20.6624 3.82835 19.7904 3.27639C18.9294 2.72443 17.8505 2.27228 16.5534 1.92004C15.2676 1.5677 13.8029 1.3328 12.1593 1.21536C12.1593 1.21536 7.89937 1.21536 7.89937 1.21536C7.75397 6.28853 7.68136 10.1228 7.68136 12.7182C7.68136 12.7182 12.4612 12.7182 12.4612 12.7182C12.7407 12.7182 13.0035 12.6946 13.2495 12.6476C13.4954 12.589 13.7246 12.495 13.9371 12.3658C14.1607 12.2366 14.3508 12.1133 14.5074 11.9959C14.675 11.8668 14.8484 11.6789 15.0273 11.4323C15.2173 11.1738 15.3683 10.9625 15.4801 10.798C15.5919 10.6337 15.7317 10.3753 15.8993 10.023C16.067 9.65892 16.1957 9.38294 16.2851 9.19505C16.3746 9.00715 16.5087 8.696 16.6876 8.26148C16.8777 7.82697 17.0174 7.5099 17.1069 7.31028C17.4982 7.48645 17.7107 7.63316 17.7442 7.75061C17.0845 9.55911 16.7547 11.397 16.7547 13.2642C16.7547 15.1196 17.0845 16.9634 17.7442 18.7953C17.6659 18.9598 17.4535 19.1124 17.1069 19.2533C16.4248 17.5271 15.9049 16.3703 15.5472 15.7832C14.7197 14.4797 13.6911 13.822 12.4612 13.8103C12.4612 13.8103 7.68136 13.8103 7.68136 13.8103C7.68136 16.3351 7.74281 19.5587 7.86579 23.481C7.87695 23.7863 8.00557 24.0506 8.25154 24.2737C8.49751 24.4851 8.84977 24.6495 9.30812 24.7669C9.77773 24.8844 10.1691 24.9724 10.4822 25.0312C10.8064 25.0781 11.2257 25.1251 11.7401 25.1721C11.7847 25.407 11.8071 25.5655 11.8071 25.6477C11.8071 25.7417 11.7847 25.859 11.7401 26C9.83927 25.9296 7.89375 25.8943 5.90356 25.8943C3.89096 25.8943 1.94543 25.9296 0.0670738 26C0.0223274 25.859 0 25.7417 0 25.6477C0 25.5655 0.0223274 25.407 0.0670738 25.1721C0.40254 25.1368 0.670834 25.1074 0.872059 25.084C1.07337 25.0605 1.3473 25.0194 1.69393 24.9607C2.05172 24.902 2.33681 24.8374 2.54929 24.7669C2.77284 24.6847 3.00211 24.5849 3.23692 24.4675C3.47163 24.35 3.64499 24.2091 3.75681 24.0447C3.8798 23.8802 3.94124 23.6923 3.94124 23.481C4.07549 19.8053 4.14256 16.1003 4.14256 12.3658C4.14256 8.56091 4.08665 5.27861 3.97482 2.5189C3.96367 2.21356 3.83505 1.95521 3.58908 1.74387C3.35427 1.53253 2.99648 1.36808 2.51571 1.25063C2.03493 1.13318 1.64918 1.05682 1.35846 1.02165C1.06775 0.97465 0.648512 0.921839 0.100565 0.863115C0.0559101 0.65167 0.0334892 0.504963 0.0334892 0.42269C0.0334892 0.35224 0.0559101 0.223068 0.100565 0.0351725C0.100565 0.0351725 0.100565 0.0351725 0.100565 0.0351725Z" fill="#DABCFF" transform="translate(20 14)" />
    </g>
  </g>
</svg>