<svg
        id="Flogo"
        width="200"
        height="200"
        viewBox="-70 -20 200 100"
        fill="none"
        xmlns="http://www.w3.org/2000/svg"
      >
        <path
          className="hex"
          d="M2.02073 33.5C1.48483 32.5718 1.48483 31.4282 2.02073 30.5L15.7113 6.78719C16.2472 5.85898 17.2376 5.28719 18.3094 5.28719H45.6906C46.7624 5.28719 47.7528 5.85898 48.2887 6.78719L61.9793 30.5C62.5152 31.4282 62.5152 32.5718 61.9793 33.5L48.2887 57.2128C47.7528 58.141 46.7624 58.7128 45.6906 58.7128H18.3094C17.2376 58.7128 16.2472 58.141 15.7113 57.2128L2.02073 33.5Z"
          stroke="#DABCFF"
          stroke-width="2"
        />
        <path
          className="fletter"
          d="M20.1523 19.1953C22.1211 19.2656 24.1719 19.3008 26.3047 19.3008H28.3262C29.1816 19.2891 30.6582 19.2832 32.7559 19.2832C34.8652 19.2715 36.6641 19.2598 38.1523 19.248C39.6523 19.2363 41.1406 19.207 42.6172 19.1602C42.7109 19.9688 42.9102 20.8125 43.2148 21.6914C43.5195 22.5586 43.8125 23.2734 44.0938 23.8359C44.375 24.3867 44.7441 25.0547 45.2012 25.8398C45.1074 26.0391 44.9023 26.1973 44.5859 26.3145C44.1641 25.5176 43.6543 24.8086 43.0566 24.1875C42.459 23.5664 41.7031 22.9805 40.7891 22.4297C39.8867 21.8789 38.7559 21.4277 37.3965 21.0762C36.0488 20.7246 34.5137 20.4902 32.791 20.373H28.3262C28.1738 25.4355 28.0977 29.2617 28.0977 31.8516H33.1074C33.4004 31.8516 33.6758 31.8281 33.9336 31.7812C34.1914 31.7227 34.4316 31.6289 34.6543 31.5C34.8887 31.3711 35.0879 31.248 35.252 31.1309C35.4277 31.002 35.6094 30.8145 35.7969 30.5684C35.9961 30.3105 36.1543 30.0996 36.2715 29.9355C36.3887 29.7715 36.5352 29.5137 36.7109 29.1621C36.8867 28.7988 37.0215 28.5234 37.1152 28.3359C37.209 28.1484 37.3496 27.8379 37.5371 27.4043C37.7363 26.9707 37.8828 26.6543 37.9766 26.4551C38.3867 26.6309 38.6094 26.7773 38.6445 26.8945C37.9531 28.6992 37.6074 30.5332 37.6074 32.3965C37.6074 34.248 37.9531 36.0879 38.6445 37.916C38.5625 38.0801 38.3398 38.2324 37.9766 38.373C37.2617 36.6504 36.7168 35.4961 36.3418 34.9102C35.4746 33.6094 34.3965 32.9531 33.1074 32.9414H28.0977C28.0977 35.4609 28.1621 38.6777 28.291 42.5918C28.3027 42.8965 28.4375 43.1602 28.6953 43.3828C28.9531 43.5938 29.3223 43.7578 29.8027 43.875C30.2949 43.9922 30.7051 44.0801 31.0332 44.1387C31.373 44.1855 31.8125 44.2324 32.3516 44.2793C32.3984 44.5137 32.4219 44.6719 32.4219 44.7539C32.4219 44.8477 32.3984 44.9648 32.3516 45.1055C30.3594 45.0352 28.3203 45 26.2344 45C24.125 45 22.0859 45.0352 20.1172 45.1055C20.0703 44.9648 20.0469 44.8477 20.0469 44.7539C20.0469 44.6719 20.0703 44.5137 20.1172 44.2793C20.4688 44.2441 20.75 44.2148 20.9609 44.1914C21.1719 44.168 21.459 44.127 21.8223 44.0684C22.1973 44.0098 22.4961 43.9453 22.7188 43.875C22.9531 43.793 23.1934 43.6934 23.4395 43.5762C23.6855 43.459 23.8672 43.3184 23.9844 43.1543C24.1133 42.9902 24.1777 42.8027 24.1777 42.5918C24.3184 38.9238 24.3887 35.2266 24.3887 31.5C24.3887 27.7031 24.3301 24.4277 24.2129 21.6738C24.2012 21.3691 24.0664 21.1113 23.8086 20.9004C23.5625 20.6895 23.1875 20.5254 22.6836 20.4082C22.1797 20.291 21.7754 20.2148 21.4707 20.1797C21.166 20.1328 20.7266 20.0801 20.1523 20.0215C20.1055 19.8105 20.082 19.6641 20.082 19.582C20.082 19.5117 20.1055 19.3828 20.1523 19.1953Z"
          fill="#DABCFF"
        />
      </svg>