<svg
                id="fi_3411787"
                enable-background="new 0 0 512 512"
                height="512"
                viewBox="0 0 512 512"
                width="512"
                xmlns="http://www.w3.org/2000/svg"
              >
                <g>
                  <path
                    d="m271 151h218.114c-4.726-10.404-10.15-20.396-16.176-30h-201.938z"
                  ></path>
                  <path
                    d="m271 91h180.073c-9.199-10.803-19.241-20.858-30.093-30h-149.98z"
                  ></path>
                  <path
                    d="m271 451h149.98c10.853-9.142 20.894-19.197 30.093-30h-180.073z"
                  ></path>
                  <path
                    d="m271 31h105.745c-31.55-16.86-68.084-28.794-105.745-31z"
                  ></path>
                  <path
                    d="m271 211h236.779c-1.827-10.201-4.063-20.255-7.07-30h-229.709z"
                  ></path>
                  <path
                    d="m271 241v30h240.24c.293-4.991.76-9.937.76-15s-.467-10.009-.76-15z"
                  ></path>
                  <path
                    d="m0 256c0 135.547 107.384 248.169 241 256v-512c-133.616 7.831-241 120.453-241 256z"
                  ></path>
                  <path
                    d="m271 512c37.661-2.206 74.195-14.14 105.745-31h-105.745z"
                  ></path>
                  <path
                    d="m507.779 301h-236.779v30h229.71c3.006-9.745 5.242-19.799 7.069-30z"
                  ></path>
                  <path
                    d="m271 391h201.938c6.026-9.604 11.45-19.596 16.176-30h-218.114z"
                  ></path>
                </g>
              </svg>