<svg
                id="fi_11385451"
                enable-background="new 0 0 65 65"
                viewBox="0 0 65 65"
                xmlns="http://www.w3.org/2000/svg"
              >
                <g>
                  <path
                    d="m28.5 9.5h34c1.1 0 2-.9 2-2s-.9-2-2-2h-34c-1.1 0-2 .9-2 2s.9 2 2 2z"
                  ></path>
                  <path
                    d="m28.5 22h19.7c1.1 0 2-.9 2-2s-.9-2-2-2h-19.7c-1.1 0-2 .9-2 2s.9 2 2 2z"
                  ></path>
                  <path
                    d="m28.5 47h11.6c1.1 0 2-.9 2-2s-.9-2-2-2h-11.6c-1.1 0-2 .9-2 2s.9 2 2 2z"
                  ></path>
                  <path
                    d="m62.5 55.5h-34c-1.1 0-2 .9-2 2s.9 2 2 2h34c1.1 0 2-.9 2-2s-.9-2-2-2z"
                  ></path>
                  <path
                    d="m28.5 34.5h27.5c1.1 0 2-.9 2-2s-.9-2-2-2h-27.5c-1.1 0-2 .9-2 2s.9 2 2 2z"
                  ></path>
                  <path
                    d="m19.8 51.7-5.9 5.9v-50.3l5.9 5.9c.8.8 2 .8 2.8 0s.8-2 0-2.8l-9.3-9.3c-.8-.8-2.1-.8-2.8 0l-9.3 9.3c-.8.8-.8 2 0 2.8s2 .8 2.8 0l5.9-5.9v50.3l-5.9-5.9c-.8-.8-2-.8-2.8 0s-.8 2 0 2.8l9.3 9.3c.4.4.9.6 1.4.6s1-.2 1.4-.6l9.3-9.3c.8-.8.8-2 0-2.8-.8-.7-2-.7-2.8 0z"
                  ></path>
                </g>
              </svg>