<svg
                xmlns="http://www.w3.org/2000/svg"
                id="fi_6061406"
                viewBox="0 0 60 60"
                width="512"
                height="512"
              >
                <path
                  d="M3,54H27.614a20.862,20.862,0,0,0,18.623-2.969l8.2,8.2A2.584,2.584,0,0,0,56.282,60h.01a2.555,2.555,0,0,0,1.823-.766l1.114-1.113a2.587,2.587,0,0,0,.005-3.68l-8.2-8.2A20.946,20.946,0,0,0,40,13.884V8.41A1.977,1.977,0,0,0,39.417,7L33,.583A1.977,1.977,0,0,0,31.59,0H3A3,3,0,0,0,0,3V51A3,3,0,0,0,3,54Zm54.82,1.855a.6.6,0,0,1,.18.429.585.585,0,0,1-.18.417L56.7,57.826a.575.575,0,0,1-.411.174h0a.6.6,0,0,1-.427-.18l-8.043-8.042a21.322,21.322,0,0,0,1.966-1.965ZM53,34A19,19,0,1,1,34,15,19.021,19.021,0,0,1,53,34ZM33,3.413,36.589,7H34a1,1,0,0,1-1-1ZM2,3A1,1,0,0,1,3,2L31,2V6a3,3,0,0,0,3,3h4v4.393A20.976,20.976,0,0,0,23.24,52H3a1,1,0,0,1-1-1Z"
                ></path>
                <path
                  d="M17,34A17,17,0,1,0,39.313,17.851a1,1,0,1,0-.626,1.9A15.005,15.005,0,1,1,34,19a1,1,0,0,0,0-2A17.019,17.019,0,0,0,17,34Z"
                ></path>
                <path d="M7,7H27a1,1,0,0,0,0-2H7A1,1,0,0,0,7,7Z"></path>
                <path d="M7,12H27a1,1,0,0,0,0-2H7a1,1,0,0,0,0,2Z"></path>
                <path d="M7,17H18a1,1,0,0,0,0-2H7a1,1,0,0,0,0,2Z"></path>
                <path d="M7,22h6a1,1,0,0,0,0-2H7a1,1,0,0,0,0,2Z"></path>
                <path d="M7,27h4a1,1,0,0,0,0-2H7a1,1,0,0,0,0,2Z"></path>
                <path d="M7,32h3a1,1,0,0,0,0-2H7a1,1,0,0,0,0,2Z"></path>
                <path d="M7,37h3a1,1,0,0,0,0-2H7a1,1,0,0,0,0,2Z"></path>
                <path d="M7,42h4a1,1,0,0,0,0-2H7a1,1,0,0,0,0,2Z"></path>
                <path d="M7,47h6a1,1,0,0,0,0-2H7a1,1,0,0,0,0,2Z"></path>
                <path
                  d="M28.707,36.293a1,1,0,0,0-1.414,1.414l3,3A1,1,0,0,0,31,41l.071,0a1,1,0,0,0,.729-.4l9-12a1,1,0,0,0-1.6-1.2L30.892,38.478Z"
                ></path>
              </svg>