<svg
                height="512"
                viewBox="0 0 32 32"
                width="512"
                xmlns="http://www.w3.org/2000/svg"
                id="fi_7212447"
              >
                <g id="hardware_manual_x2C__instruction_2_">
                  <g>
                    <g>
                      <path
                        d="m29.5 17c-.276 0-.5-.224-.5-.5v-14.5h-11.5c-.827 0-1.5.673-1.5 1.5 0 .276-.224.5-.5.5s-.5-.224-.5-.5c0-1.379 1.121-2.5 2.5-2.5h12c.276 0 .5.224.5.5v15c0 .276-.224.5-.5.5z"
                        fill="rgb(0,0,0)"
                      ></path>
                      <g>
                        <path
                          d="m12.5 25h-11c-.276 0-.5-.224-.5-.5s.224-.5.5-.5h11c.276 0 .5.224.5.5s-.224.5-.5.5z"
                          fill="rgb(0,0,0)"
                        ></path>
                      </g>
                      <g fill="rgb(0,0,0)">
                        <path
                          d="m12.5 23h-11c-.276 0-.5-.224-.5-.5v-17c0-.276.224-.5.5-.5s.5.224.5.5v16.5h10.5c.276 0 .5.224.5.5s-.224.5-.5.5z"
                        ></path>
                        <path
                          d="m15.5 17c-.276 0-.5-.224-.5-.5v-13c0-.827-.673-1.5-1.5-1.5h-11.5v4.5c0 .276-.224.5-.5.5s-.5-.224-.5-.5v-5c0-.276.224-.5.5-.5h12c1.379 0 2.5 1.121 2.5 2.5v13c0 .276-.224.5-.5.5z"
                        ></path>
                      </g>
                    </g>
                    <g fill="rgb(0,0,0)">
                      <g>
                        <path
                          d="m9.5 8h3c.276 0 .5.224.5.5 0 .275-.224.5-.5.5h-3c-.276 0-.5-.225-.5-.5 0-.276.224-.5.5-.5z"
                        ></path>
                        <path
                          d="m4.5 12h8c.276 0 .5.224.5.5 0 .275-.224.5-.5.5h-8c-.276 0-.5-.225-.5-.5 0-.276.224-.5.5-.5z"
                        ></path>
                        <path
                          d="m4.5 10h8c.276 0 .5.224.5.5 0 .275-.224.5-.5.5h-8c-.276 0-.5-.225-.5-.5 0-.276.224-.5.5-.5z"
                        ></path>
                        <path
                          d="m4.5 16h2c.276 0 .5.224.5.5 0 .275-.224.5-.5.5h-2c-.276 0-.5-.225-.5-.5 0-.276.224-.5.5-.5z"
                        ></path>
                        <path
                          d="m4.5 14h8c.276 0 .5.224.5.5 0 .275-.224.5-.5.5h-8c-.276 0-.5-.225-.5-.5 0-.276.224-.5.5-.5z"
                        ></path>
                        <path
                          d="m8.5 16h4c.276 0 .5.224.5.5 0 .275-.224.5-.5.5h-4c-.276 0-.5-.225-.5-.5 0-.276.224-.5.5-.5z"
                        ></path>
                        <path
                          d="m4.5 8h3c.276 0 .5.224.5.5 0 .275-.224.5-.5.5h-3c-.276 0-.5-.225-.5-.5 0-.276.224-.5.5-.5z"
                        ></path>
                      </g>
                      <g>
                        <path
                          d="m18.5 8h8c.276 0 .5.224.5.5 0 .275-.224.5-.5.5h-8c-.276 0-.5-.225-.5-.5 0-.276.224-.5.5-.5z"
                        ></path>
                        <path
                          d="m23.5 12h3c.276 0 .5.224.5.5 0 .275-.224.5-.5.5h-3c-.276 0-.5-.225-.5-.5 0-.276.224-.5.5-.5z"
                        ></path>
                        <path
                          d="m23.5 10h3c.276 0 .5.224.5.5 0 .275-.224.5-.5.5h-3c-.276 0-.5-.225-.5-.5 0-.276.224-.5.5-.5z"
                        ></path>
                        <path
                          d="m23.5 14h3c.276 0 .5.224.5.5 0 .275-.224.5-.5.5h-3c-.276 0-.5-.225-.5-.5 0-.276.224-.5.5-.5z"
                        ></path>
                      </g>
                      <g>
                        <circle cx="4.5" cy="4.5" r=".5"></circle>
                        <circle cx="6.5" cy="4.5" r=".5"></circle>
                        <circle cx="8.5" cy="4.5" r=".5"></circle>
                      </g>
                      <g>
                        <circle cx="22.5" cy="4.5" r=".5"></circle>
                        <circle cx="24.5" cy="4.5" r=".5"></circle>
                        <circle cx="26.5" cy="4.5" r=".5"></circle>
                      </g>
                    </g>
                  </g>
                  <g id="XMLID_1546_">
                    <g id="user_interaction_touch_screen_2_">
                      <g id="XMLID_1552_">
                        <path
                          d="m29.5 30.908c-.205 0-.398-.128-.471-.332-.093-.261.043-.546.303-.639.399-.142.668-.519.668-.937v-8.5c0-.552-.448-1-1-1s-1 .448-1 1c0 .276-.224.5-.5.5s-.5-.224-.5-.5v-1c0-.552-.448-1-1-1s-1 .448-1 1c0 .276-.224.5-.5.5s-.5-.224-.5-.5v-.5c0-.552-.448-1-1-1s-1 .448-1 1c0 .276-.224.5-.5.5s-.5-.224-.5-.5v-7c0-.552-.448-1-1-1s-1 .448-1 1v11.5c0 .233-.162.436-.39.487-.231.056-.46-.062-.562-.271l-1.742-3.643c-.166-.359-.46-.813-.929-.958-.306-.096-.658-.058-1.052.115l1.457 5.645c.448 1.032 1.899 4.03 2.924 4.63.238.14.318.446.179.685-.14.237-.446.315-.685.179-1.491-.874-3.175-4.734-3.362-5.172l-1.581-6.102c-.056-.216.038-.442.23-.556.975-.574 1.726-.522 2.188-.379.647.202 1.179.717 1.535 1.487l.79 1.649v-9.296c0-1.103.897-2 2-2s2 .897 2 2v5.269c.294-.171.636-.269 1-.269.727 0 1.363.389 1.714.97.348-.293.797-.47 1.286-.47.871 0 1.614.56 1.888 1.339.318-.214.701-.339 1.112-.339 1.103 0 2 .897 2 2v8.5c0 .84-.535 1.596-1.332 1.879-.056.02-.112.029-.168.029z"
                          fill="rgb(0,0,0)"
                        ></path>
                      </g>
                    </g>
                  </g>
                </g>
              </svg>